  <svg
          width="800"
          height="158"
          viewBox="0 0 800 145"
          fill="none"
          xmlns="http://www.w3.org/2000/svg"
        >
          <mask
            id="path-1-outside-1_13_9"
            maskUnits="userSpaceOnUse"
            x="-4.12351"
            y="-2.72865"
            width="764.84"
            height="150.7"
            fill="black"
          >
            <rect
              fill="white"
              x="-4.12351"
              y="-2.72865"
              width="764.84"
              height="150.7"
            />
            <path
              d="M70.2597 142.022L95.8597 142.022L79.7333 3.22001L53.3333 3.22001L0.65965 142.022L26.2597 142.022L35.175 116.84L67.975 116.84L70.2597 142.022ZM43.2293 93.6398L52.223 67.8622C55.4761 58.3443 59.6862 43.0761 62.1131 33.7565L62.7131 33.7565C62.8862 43.0761 63.0761 58.3443 63.823 67.8622L66.0293 93.6398L43.2293 93.6398ZM184.502 70.8365C193.311 64.6896 199.547 53.7837 201.113 41.8864C204.194 18.4883 191.204 3.22001 169.204 3.22001L128.204 3.22001L109.93 142.022L152.13 142.022C176.33 142.022 195.018 126.159 198.282 101.373C200.057 87.8894 194.971 76.3886 184.502 70.8365ZM162.375 26.2215C173.175 26.2215 177.444 31.7736 175.983 42.8778C174.495 54.1803 168.685 60.3272 158.685 60.3272L145.285 60.3272L149.775 26.2215L162.375 26.2215ZM151.358 119.021L137.558 119.021L142.283 83.1305L155.883 83.1305C168.283 83.1305 174.674 89.2774 173.082 101.373C171.541 113.072 164.158 119.021 151.358 119.021ZM252.356 144.402C279.956 144.402 298.679 126.754 302.543 97.4073L309.069 47.835C312.933 18.4883 298.856 0.840547 271.256 0.840547C243.456 0.840547 224.733 18.4883 220.869 47.835L214.343 97.4073C210.479 126.754 224.556 144.402 252.356 144.402ZM255.462 120.805C243.062 120.805 237.759 112.477 239.743 97.4073L246.269 47.835C248.253 32.7651 255.749 24.4369 268.149 24.4369C280.549 24.4369 285.653 32.7651 283.669 47.835L277.143 97.4073C275.159 112.477 267.862 120.805 255.462 120.805ZM359.022 144.203C385.422 144.203 403.815 127.547 407.601 98.7953L420.183 3.22001L395.183 3.22001L382.601 98.7953C380.695 113.27 373.329 120.607 362.129 120.607C350.929 120.607 345.495 113.27 347.401 98.7953L359.983 3.22001L334.983 3.22001L322.401 98.7953C318.615 127.547 332.622 144.203 359.022 144.203ZM515.819 3.22001L434.219 3.22001L431.165 26.4198L459.365 26.4198L444.146 142.022L469.346 142.022L484.565 26.4198L512.765 26.4198L515.819 3.22001ZM595.351 144.203C621.751 144.203 640.143 127.547 643.929 98.7953L656.511 3.22001L631.511 3.22001L618.929 98.7953C617.023 113.27 609.657 120.607 598.457 120.607C587.257 120.607 581.823 113.27 583.729 98.7953L596.311 3.22001L571.311 3.22001L558.729 98.7953C554.943 127.547 568.951 144.203 595.351 144.203ZM695.508 144.798C722.508 144.798 740.179 127.547 743.051 105.735C748.794 62.1118 691.899 61.3187 695.083 37.1274C696.128 29.1959 702.206 24.0404 711.406 24.0404C720.806 24.0404 725.701 29.3942 724.44 40.4983L749.64 40.4983C752.703 15.7122 739.513 0.443962 714.513 0.443962C689.713 0.443962 672.877 15.9105 670.162 36.5326C664.653 78.3715 720.792 80.3544 717.477 105.537C716.302 114.46 710.041 121.004 698.841 121.004C688.241 121.004 682.398 115.253 683.843 102.761L658.643 102.761C655.318 129.53 669.708 144.798 695.508 144.798Z"
            />
          </mask>
          <path
            d="M70.2597 142.022L95.8597 142.022L79.7333 3.22001L53.3333 3.22001L0.65965 142.022L26.2597 142.022L35.175 116.84L67.975 116.84L70.2597 142.022ZM43.2293 93.6398L52.223 67.8622C55.4761 58.3443 59.6862 43.0761 62.1131 33.7565L62.7131 33.7565C62.8862 43.0761 63.0761 58.3443 63.823 67.8622L66.0293 93.6398L43.2293 93.6398ZM184.502 70.8365C193.311 64.6896 199.547 53.7837 201.113 41.8864C204.194 18.4883 191.204 3.22001 169.204 3.22001L128.204 3.22001L109.93 142.022L152.13 142.022C176.33 142.022 195.018 126.159 198.282 101.373C200.057 87.8894 194.971 76.3886 184.502 70.8365ZM162.375 26.2215C173.175 26.2215 177.444 31.7736 175.983 42.8778C174.495 54.1803 168.685 60.3272 158.685 60.3272L145.285 60.3272L149.775 26.2215L162.375 26.2215ZM151.358 119.021L137.558 119.021L142.283 83.1305L155.883 83.1305C168.283 83.1305 174.674 89.2774 173.082 101.373C171.541 113.072 164.158 119.021 151.358 119.021ZM252.356 144.402C279.956 144.402 298.679 126.754 302.543 97.4073L309.069 47.835C312.933 18.4883 298.856 0.840547 271.256 0.840547C243.456 0.840547 224.733 18.4883 220.869 47.835L214.343 97.4073C210.479 126.754 224.556 144.402 252.356 144.402ZM255.462 120.805C243.062 120.805 237.759 112.477 239.743 97.4073L246.269 47.835C248.253 32.7651 255.749 24.4369 268.149 24.4369C280.549 24.4369 285.653 32.7651 283.669 47.835L277.143 97.4073C275.159 112.477 267.862 120.805 255.462 120.805ZM359.022 144.203C385.422 144.203 403.815 127.547 407.601 98.7953L420.183 3.22001L395.183 3.22001L382.601 98.7953C380.695 113.27 373.329 120.607 362.129 120.607C350.929 120.607 345.495 113.27 347.401 98.7953L359.983 3.22001L334.983 3.22001L322.401 98.7953C318.615 127.547 332.622 144.203 359.022 144.203ZM515.819 3.22001L434.219 3.22001L431.165 26.4198L459.365 26.4198L444.146 142.022L469.346 142.022L484.565 26.4198L512.765 26.4198L515.819 3.22001ZM595.351 144.203C621.751 144.203 640.143 127.547 643.929 98.7953L656.511 3.22001L631.511 3.22001L618.929 98.7953C617.023 113.27 609.657 120.607 598.457 120.607C587.257 120.607 581.823 113.27 583.729 98.7953L596.311 3.22001L571.311 3.22001L558.729 98.7953C554.943 127.547 568.951 144.203 595.351 144.203ZM695.508 144.798C722.508 144.798 740.179 127.547 743.051 105.735C748.794 62.1118 691.899 61.3187 695.083 37.1274C696.128 29.1959 702.206 24.0404 711.406 24.0404C720.806 24.0404 725.701 29.3942 724.44 40.4983L749.64 40.4983C752.703 15.7122 739.513 0.443962 714.513 0.443962C689.713 0.443962 672.877 15.9105 670.162 36.5326C664.653 78.3715 720.792 80.3544 717.477 105.537C716.302 114.46 710.041 121.004 698.841 121.004C688.241 121.004 682.398 115.253 683.843 102.761L658.643 102.761C655.318 129.53 669.708 144.798 695.508 144.798Z"
            fill="white"
            fill-opacity="0.03"
          />
          <path
            d="M70.2597 142.022L67.2457 142.663L67.4574 144.997L69.8681 144.997L70.2597 142.022ZM95.8597 142.022L95.4681 144.997L99.2945 144.997L98.8664 141.313L95.8597 142.022ZM79.7333 3.22001L82.7401 2.51028L82.477 0.245676L80.1249 0.245676L79.7333 3.22001ZM53.3333 3.22001L53.7249 0.245676L51.3728 0.245676L50.5134 2.51028L53.3333 3.22001ZM0.65965 142.022L-2.16025 141.313L-3.55831 144.997L0.268071 144.997L0.65965 142.022ZM26.2597 142.022L25.8681 144.997L28.2787 144.997L29.105 142.663L26.2597 142.022ZM35.175 116.84L35.5666 113.865L33.156 113.865L32.3297 116.199L35.175 116.84ZM67.975 116.84L70.989 116.199L70.7772 113.865L68.3666 113.865L67.975 116.84ZM43.2293 93.6398L40.379 93.0135L39.1228 96.6141L42.8378 96.6141L43.2293 93.6398ZM52.223 67.8622L55.0733 68.4885L55.0767 68.4787L55.0801 68.4688L52.223 67.8622ZM62.1131 33.7565L62.5047 30.7822L59.8633 30.7822L59.1868 33.3799L62.1131 33.7565ZM62.7131 33.7565L65.7381 33.3184L65.691 30.7822L63.1047 30.7822L62.7131 33.7565ZM63.823 67.8622L60.8062 68.4688L60.807 68.4787L60.8078 68.4885L63.823 67.8622ZM66.0293 93.6398L65.6378 96.6141L69.3527 96.6141L69.0445 93.0135L66.0293 93.6398ZM69.8681 144.997L95.4681 144.997L96.2512 139.048L70.6512 139.048L69.8681 144.997ZM98.8664 141.313L82.7401 2.51028L76.7265 3.92973L92.8529 142.732L98.8664 141.313ZM80.1249 0.245676L53.7249 0.245676L52.9417 6.19434L79.3417 6.19434L80.1249 0.245676ZM50.5134 2.51028L-2.16025 141.313L3.47955 142.732L56.1532 3.92973L50.5134 2.51028ZM0.268071 144.997L25.8681 144.997L26.6512 139.048L1.05123 139.048L0.268071 144.997ZM29.105 142.663L38.0204 117.48L32.3297 116.199L23.4143 141.382L29.105 142.663ZM34.7834 119.814L67.5834 119.814L68.3666 113.865L35.5666 113.865L34.7834 119.814ZM64.9611 117.48L67.2457 142.663L73.2736 141.382L70.989 116.199L64.9611 117.48ZM46.0796 94.266L55.0733 68.4885L49.3727 67.236L40.379 93.0135L46.0796 94.266ZM55.0801 68.4688C58.3751 58.8283 62.6103 43.4609 65.0394 34.1332L59.1868 33.3799C56.762 42.6913 52.5771 57.8604 49.3659 67.2556L55.0801 68.4688ZM61.7215 36.7309L62.3215 36.7309L63.1047 30.7822L62.5047 30.7822L61.7215 36.7309ZM59.6882 34.1947C59.8601 43.4565 60.0508 58.843 60.8062 68.4688L66.8398 67.2556C66.1013 57.8456 65.9122 42.6957 65.7381 33.3184L59.6882 34.1947ZM60.8078 68.4885L63.0141 94.266L69.0445 93.0135L66.8382 67.236L60.8078 68.4885ZM66.4209 90.6654L43.6209 90.6654L42.8378 96.6141L65.6378 96.6141L66.4209 90.6654ZM184.502 70.8366L182.974 68.4856L178.822 71.3822L182.81 73.4969L184.502 70.8366ZM128.204 3.22001L128.595 0.245675L125.595 0.245675L125.204 3.22001L128.204 3.22001ZM109.93 142.022L106.93 142.022L106.538 144.997L109.538 144.997L109.93 142.022ZM145.285 60.3272L142.285 60.3272L141.894 63.3016L144.894 63.3016L145.285 60.3272ZM149.775 26.2215L150.167 23.2472L147.167 23.2472L146.775 26.2215L149.775 26.2215ZM137.558 119.021L134.558 119.021L134.167 121.995L137.167 121.995L137.558 119.021ZM142.283 83.1305L142.675 80.1561L139.675 80.1561L139.283 83.1305L142.283 83.1305ZM186.03 73.1875C195.806 66.3658 202.452 54.5048 204.113 41.8864L198.113 41.8864C196.642 53.0626 190.816 63.0134 182.974 68.4856L186.03 73.1875ZM204.113 41.8864C205.737 29.5514 203.148 19.1061 197.003 11.7237C190.848 4.33072 181.32 0.245675 169.595 0.245675L168.812 6.19434C179.087 6.19434 187.054 9.74342 192.124 15.8341C197.203 21.9353 199.57 30.8233 198.113 41.8864L204.113 41.8864ZM169.595 0.245675L128.595 0.245675L127.812 6.19434L168.812 6.19434L169.595 0.245675ZM125.204 3.22001L106.93 142.022L112.93 142.022L131.204 3.22001L125.204 3.22001ZM109.538 144.997L151.738 144.997L152.522 139.048L110.322 139.048L109.538 144.997ZM151.738 144.997C164.511 144.997 176.064 140.799 184.893 133.103C193.727 125.403 199.561 114.442 201.282 101.373L195.282 101.373C193.739 113.09 188.597 122.454 181.221 128.882C173.841 135.315 163.949 139.048 152.522 139.048L151.738 144.997ZM201.282 101.373C203.185 86.9128 197.733 74.2959 186.194 68.1762L182.81 73.4969C192.209 78.4814 196.928 88.866 195.282 101.373L201.282 101.373ZM161.984 29.1959C166.892 29.1959 169.735 30.4503 171.312 32.4095C172.925 34.4126 173.664 37.704 172.983 42.8778L178.983 42.8778C179.763 36.9474 179.099 31.9106 176.242 28.3617C173.35 24.7688 168.658 23.2472 162.767 23.2472L161.984 29.1959ZM172.983 42.8778C172.288 48.1564 170.643 51.72 168.481 53.9274C166.41 56.0426 163.429 57.3529 159.077 57.3529L158.294 63.3016C163.942 63.3016 168.865 61.5384 172.571 57.7545C176.186 54.0628 178.19 48.9017 178.983 42.8778L172.983 42.8778ZM159.077 57.3529L145.677 57.3529L144.894 63.3016L158.294 63.3016L159.077 57.3529ZM148.285 60.3272L152.775 26.2215L146.775 26.2215L142.285 60.3272L148.285 60.3272ZM149.384 29.1959L161.984 29.1959L162.767 23.2472L150.167 23.2472L149.384 29.1959ZM151.75 116.046L137.95 116.046L137.167 121.995L150.967 121.995L151.75 116.046ZM140.558 119.021L145.283 83.1305L139.283 83.1305L134.558 119.021L140.558 119.021ZM141.892 86.1048L155.492 86.1048L156.275 80.1561L142.675 80.1561L141.892 86.1048ZM155.492 86.1048C161.23 86.1048 165.111 87.5272 167.412 89.9071C169.676 92.248 170.8 95.9174 170.082 101.373L176.082 101.373C176.956 94.733 175.68 89.2812 172.047 85.5247C168.451 81.8073 162.937 80.1561 156.275 80.1561L155.492 86.1048ZM170.082 101.373C169.384 106.674 167.442 110.172 164.705 112.39C161.915 114.652 157.733 116.046 151.75 116.046L150.967 121.995C157.784 121.995 163.693 120.415 168.179 116.778C172.719 113.097 175.239 107.771 176.082 101.373L170.082 101.373ZM251.964 147.376C266.431 147.376 278.903 142.731 288.285 133.931C297.635 125.16 303.541 112.613 305.543 97.4073L299.543 97.4073C297.681 111.548 292.293 122.499 284.416 129.888C276.57 137.248 265.881 141.427 252.747 141.427L251.964 147.376ZM305.543 97.4073L312.069 47.835L306.069 47.835L299.543 97.4073L305.543 97.4073ZM312.069 47.835C314.071 32.629 311.469 20.0823 304.428 11.3114C297.364 2.51086 286.114 -2.13379 271.648 -2.13379L270.864 3.81488C283.998 3.81488 293.586 7.99409 299.494 15.3541C305.426 22.7437 307.931 33.6943 306.069 47.835L312.069 47.835ZM271.648 -2.13379C257.087 -2.13379 244.565 2.50696 235.155 11.3078C225.777 20.0799 219.871 32.629 217.869 47.835L223.869 47.835C225.731 33.6943 231.118 22.7461 239.017 15.3577C246.886 7.99799 257.625 3.81488 270.864 3.81488L271.648 -2.13379ZM217.869 47.835L211.343 97.4073L217.343 97.4073L223.869 47.835L217.869 47.835ZM211.343 97.4073C209.341 112.613 211.943 125.162 219.011 133.934C226.103 142.735 237.404 147.376 251.964 147.376L252.747 141.427C239.508 141.427 229.87 137.244 223.939 129.885C217.986 122.496 215.481 111.548 217.343 97.4073L211.343 97.4073ZM255.854 117.831C250.39 117.831 246.874 116.036 244.808 112.917C242.662 109.68 241.797 104.591 242.743 97.4073L236.743 97.4073C235.704 105.294 236.499 111.904 239.609 116.598C242.799 121.411 248.134 123.78 255.071 123.78L255.854 117.831ZM242.743 97.4073L249.269 47.835L243.269 47.835L236.743 97.4073L242.743 97.4073ZM249.269 47.835C250.215 40.6517 252.42 35.5627 255.418 32.3249C258.305 29.2068 262.294 27.4113 267.758 27.4113L268.541 21.4626C261.605 21.4626 255.646 23.8311 251.189 28.6446C246.842 33.3383 244.307 39.9484 243.269 47.835L249.269 47.835ZM267.758 27.4113C273.218 27.4113 276.675 29.2034 278.692 32.3067C280.795 35.5414 281.617 40.6333 280.669 47.835L286.669 47.835C287.705 39.9668 286.967 33.3596 283.914 28.6627C280.776 23.8345 275.481 21.4626 268.541 21.4626L267.758 27.4113ZM280.669 47.835L274.143 97.4073L280.143 97.4073L286.669 47.835L280.669 47.835ZM274.143 97.4073C273.195 104.609 271.031 109.701 268.077 112.936C265.243 116.039 261.314 117.831 255.854 117.831L255.071 123.78C262.01 123.78 267.93 121.408 272.34 116.58C276.63 111.883 279.107 105.275 280.143 97.4073L274.143 97.4073ZM420.183 3.22001L423.183 3.22001L423.575 0.245675L420.575 0.245675L420.183 3.22001ZM395.183 3.22001L395.575 0.245675L392.575 0.245675L392.183 3.22001L395.183 3.22001ZM359.983 3.22001L362.983 3.22001L363.375 0.245675L360.375 0.245675L359.983 3.22001ZM334.983 3.22001L335.375 0.245675L332.375 0.245675L331.983 3.22001L334.983 3.22001ZM358.631 147.178C372.484 147.178 384.568 142.79 393.711 134.318C402.828 125.868 408.637 113.712 410.601 98.7953L404.601 98.7953C402.779 112.631 397.499 123.178 389.874 130.245C382.273 137.289 371.961 141.229 359.414 141.229L358.631 147.178ZM410.601 98.7953L423.183 3.22001L417.183 3.22001L404.601 98.7953L410.601 98.7953ZM420.575 0.245675L395.575 0.245675L394.792 6.19434L419.792 6.19434L420.575 0.245675ZM392.183 3.22001L379.601 98.7953L385.601 98.7953L398.183 3.22001L392.183 3.22001ZM379.601 98.7953C378.697 105.657 376.557 110.335 373.774 113.248C371.086 116.063 367.415 117.633 362.521 117.633L361.737 123.581C368.043 123.581 373.655 121.483 377.927 117.01C382.103 112.637 384.598 106.408 385.601 98.7953L379.601 98.7953ZM362.521 117.633C357.627 117.633 354.369 116.063 352.422 113.248C350.406 110.335 349.497 105.657 350.401 98.7953L344.401 98.7953C343.398 106.408 344.254 112.637 347.279 117.01C350.372 121.483 355.432 123.581 361.737 123.581L362.521 117.633ZM350.401 98.7953L362.983 3.22001L356.983 3.22001L344.401 98.7953L350.401 98.7953ZM360.375 0.245675L335.375 0.245675L334.592 6.19434L359.592 6.19434L360.375 0.245675ZM331.983 3.22001L319.401 98.7953L325.401 98.7953L337.983 3.22001L331.983 3.22001ZM319.401 98.7953C317.437 113.712 320.045 125.868 326.937 134.318C333.849 142.79 344.778 147.178 358.631 147.178L359.414 141.229C346.867 141.229 337.593 137.289 331.847 130.245C326.082 123.178 323.579 112.631 325.401 98.7953L319.401 98.7953ZM515.819 3.22001L518.819 3.22001L519.211 0.245675L516.211 0.245675L515.819 3.22001ZM434.219 3.22001L434.611 0.245675L431.611 0.245675L431.219 3.22001L434.219 3.22001ZM431.165 26.4198L428.165 26.4198L427.773 29.3942L430.773 29.3942L431.165 26.4198ZM459.365 26.4198L462.365 26.4198L462.757 23.4455L459.757 23.4455L459.365 26.4198ZM444.146 142.022L441.146 142.022L440.754 144.997L443.754 144.997L444.146 142.022ZM469.346 142.022L468.954 144.997L471.954 144.997L472.346 142.022L469.346 142.022ZM484.565 26.4198L484.957 23.4455L481.957 23.4455L481.565 26.4198L484.565 26.4198ZM512.765 26.4198L512.373 29.3942L515.373 29.3942L515.765 26.4198L512.765 26.4198ZM516.211 0.245675L434.611 0.245675L433.828 6.19434L515.428 6.19434L516.211 0.245675ZM431.219 3.22001L428.165 26.4198L434.165 26.4198L437.219 3.22001L431.219 3.22001ZM430.773 29.3942L458.973 29.3942L459.757 23.4455L431.557 23.4455L430.773 29.3942ZM456.365 26.4198L441.146 142.022L447.146 142.022L462.365 26.4198L456.365 26.4198ZM443.754 144.997L468.954 144.997L469.737 139.048L444.537 139.048L443.754 144.997ZM472.346 142.022L487.565 26.4198L481.565 26.4198L466.346 142.022L472.346 142.022ZM484.173 29.3942L512.373 29.3942L513.157 23.4455L484.957 23.4455L484.173 29.3942ZM515.765 26.4198L518.819 3.22001L512.819 3.22001L509.765 26.4198L515.765 26.4198ZM656.511 3.22001L659.511 3.22001L659.903 0.245675L656.903 0.245675L656.511 3.22001ZM631.511 3.22001L631.903 0.245675L628.903 0.245675L628.511 3.22001L631.511 3.22001ZM596.311 3.22001L599.311 3.22001L599.703 0.245675L596.703 0.245675L596.311 3.22001ZM571.311 3.22001L571.703 0.245675L568.703 0.245675L568.311 3.22001L571.311 3.22001ZM594.959 147.178C608.812 147.178 620.897 142.79 630.039 134.318C639.156 125.868 644.965 113.712 646.929 98.7953L640.929 98.7953C639.107 112.631 633.827 123.178 626.202 130.245C618.601 137.289 608.289 141.229 595.742 141.229L594.959 147.178ZM646.929 98.7953L659.511 3.22001L653.511 3.22001L640.929 98.7953L646.929 98.7953ZM656.903 0.245675L631.903 0.245675L631.12 6.19434L656.12 6.19434L656.903 0.245675ZM628.511 3.22001L615.929 98.7953L621.929 98.7953L634.511 3.22001L628.511 3.22001ZM615.929 98.7953C615.025 105.657 612.885 110.335 610.102 113.248C607.414 116.063 603.743 117.633 598.849 117.633L598.066 123.581C604.371 123.581 609.983 121.483 614.255 117.01C618.431 112.637 620.926 106.408 621.929 98.7953L615.929 98.7953ZM598.849 117.633C593.955 117.633 590.697 116.063 588.75 113.248C586.734 110.335 585.825 105.657 586.729 98.7953L580.729 98.7953C579.726 106.408 580.582 112.637 583.607 117.01C586.7 121.483 591.76 123.581 598.066 123.581L598.849 117.633ZM586.729 98.7953L599.311 3.22001L593.311 3.22001L580.729 98.7953L586.729 98.7953ZM596.703 0.245675L571.703 0.245675L570.92 6.19434L595.92 6.19434L596.703 0.245675ZM568.311 3.22001L555.729 98.7953L561.729 98.7953L574.311 3.22001L568.311 3.22001ZM555.729 98.7953C553.765 113.712 556.373 125.868 563.265 134.318C570.177 142.79 581.106 147.178 594.959 147.178L595.742 141.229C583.195 141.229 573.921 137.289 568.175 130.245C562.41 123.178 559.907 112.631 561.729 98.7953L555.729 98.7953ZM724.44 40.4983L721.433 40.5514L721.101 43.4727L724.048 43.4727L724.44 40.4983ZM749.64 40.4983L749.248 43.4727L752.272 43.4727L752.643 40.4745L749.64 40.4983ZM683.843 102.761L686.848 102.714L687.187 99.7867L684.234 99.7867L683.843 102.761ZM658.643 102.761L659.034 99.7867L656.012 99.7867L655.64 102.783L658.643 102.761ZM695.117 147.773C709.278 147.773 721.273 143.235 730.151 135.568C739.022 127.908 744.522 117.347 746.051 105.735L740.051 105.735C738.708 115.936 733.937 124.907 726.504 131.325C719.079 137.736 708.738 141.824 695.9 141.824L695.117 147.773ZM746.051 105.735C749.143 82.2464 735.167 70.3705 721.93 61.6097C715.14 57.1162 708.838 53.5976 704.203 49.5787C699.653 45.6347 697.466 41.8152 698.083 37.1274L692.083 37.1274C691.108 44.5353 694.839 49.8867 699.882 54.2584C704.839 58.5553 711.805 62.4973 718.123 66.6789C731.102 75.2684 742.702 85.6009 740.051 105.735L746.051 105.735ZM698.083 37.1274C698.514 33.8576 699.926 31.4297 701.929 29.7985C703.963 28.1426 706.968 27.0147 711.015 27.0147L711.798 21.066C706.644 21.066 702.01 22.5159 698.443 25.4207C694.846 28.3501 692.697 32.4657 692.083 37.1274L698.083 37.1274ZM711.015 27.0147C715.139 27.0147 717.85 28.1748 719.472 30.1487C721.123 32.1571 722.013 35.4506 721.433 40.5514L727.446 40.4452C728.128 34.4419 727.201 29.5064 724.37 26.0619C721.51 22.5828 717.074 21.066 711.798 21.066L711.015 27.0147ZM724.048 43.4727L749.248 43.4727L750.031 37.524L724.831 37.524L724.048 43.4727ZM752.643 40.4745C754.248 27.4818 751.623 16.659 745.001 9.07696C738.376 1.49044 728.029 -2.53037 714.904 -2.53037L714.121 3.41829C725.997 3.41829 734.745 7.03161 740.198 13.2757C745.656 19.5244 748.094 28.7287 746.637 40.5221L752.643 40.4745ZM714.904 -2.53037C701.866 -2.53037 690.643 1.54631 682.266 8.60492C673.884 15.6674 668.615 25.4956 667.162 36.5326L673.162 36.5326C674.424 26.9474 678.93 18.7314 685.845 12.9051C692.765 7.07488 702.359 3.41829 714.121 3.41829L714.904 -2.53037ZM667.162 36.5326C664.185 59.144 678.063 70.875 691.059 79.7921C697.725 84.3663 703.952 88.0824 708.484 92.2971C712.933 96.4351 715.137 100.525 714.477 105.537L720.477 105.537C721.475 97.958 717.904 92.3565 712.932 87.7325C708.043 83.1853 701.201 79.069 694.935 74.7698C682.067 65.9401 670.63 55.7601 673.162 36.5326L667.162 36.5326ZM714.477 105.537C713.967 109.411 712.403 112.454 710.063 114.523C707.736 116.58 704.238 118.029 699.232 118.029L698.449 123.978C704.644 123.978 709.877 122.155 713.774 118.71C717.658 115.276 719.812 110.586 720.477 105.537L714.477 105.537ZM699.232 118.029C694.466 118.029 691.205 116.745 689.231 114.473C687.248 112.19 686.182 108.473 686.848 102.714L680.837 102.808C680.058 109.542 681.191 114.945 684.419 118.661C687.655 122.387 692.616 123.978 698.449 123.978L699.232 118.029ZM684.234 99.7867L659.034 99.7867L658.251 105.735L683.451 105.735L684.234 99.7867ZM655.64 102.783C653.903 116.771 656.764 128.104 663.772 135.939C670.775 143.769 681.621 147.773 695.117 147.773L695.9 141.824C683.596 141.824 674.347 138.194 668.536 131.697C662.73 125.206 660.058 115.52 661.645 102.739L655.64 102.783Z"
            fill="url(#paint0_linear_13_9)"
            mask="url(#path-1-outside-1_13_9)"
          />
          <defs>
            <linearGradient
              id="paint0_linear_13_9"
              x1="406.387"
              y1="-121.758"
              x2="406.387"
              y2="80.001"
              gradientUnits="userSpaceOnUse"
            >
              <stop offset="0.0296227" stop-color="white" />
              <stop offset="1" stop-color="white" stop-opacity="0" />
            </linearGradient>
          </defs>
        </svg>